<?xml version="1.0" encoding="iso-8859-1"?>
<!-- Generator: Adobe Illustrator 19.0.0, SVG Export Plug-In . SVG Version: 6.00 Build 0)  -->
<svg version="1.1" id="Layer_1" xmlns="http://www.w3.org/2000/svg" xmlns:xlink="http://www.w3.org/1999/xlink" x="0px" y="0px"
	 viewBox="0 0 512 512" style="enable-background:new 0 0 512 512;" xml:space="preserve">
<g>
	<g>
		<path d="M512,255.999c0-12.853-10.42-23.273-23.273-23.273h-92.053l79.393-102.076c7.891-10.145,6.063-24.767-4.082-32.658
			c-10.144-7.891-24.765-6.065-32.658,4.082L337.709,232.726H23.273C10.42,232.726,0,243.146,0,255.999
			c0,91.95,48.738,172.721,121.727,217.87c-3.348,4.031-5.364,9.208-5.364,14.859c0,12.853,10.42,23.273,23.273,23.273h232.727
			c12.853,0,23.273-10.42,23.273-23.273c0-5.651-2.015-10.828-5.365-14.859C463.262,428.719,512,347.949,512,255.999z M256,465.455
			c-107.627,0-196.555-81.602-208.17-186.183h301.227c0.006,0,0.012,0.002,0.019,0.002c0.005,0,0.009-0.002,0.014-0.002h115.082
			C452.554,383.851,363.627,465.455,256,465.455z"/>
	</g>
</g>
<g>
	<g>
		<path d="M163.846,99.905c-11.41-11.41-16.454-17.006-16.452-30.089c-0.002-13.079,5.042-18.676,16.458-30.09
			c9.089-9.087,9.087-23.822-0.002-32.911c-9.087-9.089-23.825-9.087-32.914,0c-12.699,12.701-30.093,30.093-30.088,63.001
			c-0.005,32.912,17.388,50.303,30.087,63.001c11.413,11.411,16.458,17.009,16.458,30.092c0,12.853,10.42,23.273,23.273,23.273
			c12.853,0,23.273-10.42,23.273-23.273C193.939,129.994,176.547,112.603,163.846,99.905z"/>
	</g>
</g>
<g>
	<g>
		<path d="M272.452,99.905c-11.41-11.41-16.454-17.005-16.452-30.087c-0.002-13.079,5.042-18.676,16.458-30.09
			c9.089-9.087,9.087-23.822-0.002-32.911c-9.087-9.089-23.825-9.087-32.914,0c-12.701,12.701-30.093,30.092-30.09,62.999
			c-0.005,32.912,17.388,50.303,30.087,63.001c11.414,11.411,16.46,17.009,16.46,30.092c0,12.853,10.42,23.273,23.273,23.273
			c12.853,0,23.273-10.42,23.273-23.273C302.546,129.994,285.153,112.603,272.452,99.905z"/>
	</g>
</g>
<g>
</g>
<g>
</g>
<g>
</g>
<g>
</g>
<g>
</g>
<g>
</g>
<g>
</g>
<g>
</g>
<g>
</g>
<g>
</g>
<g>
</g>
<g>
</g>
<g>
</g>
<g>
</g>
<g>
</g>
</svg>
