<?xml version="1.0" encoding="iso-8859-1"?>
<!-- Generator: Adobe Illustrator 19.0.0, SVG Export Plug-In . SVG Version: 6.00 Build 0)  -->
<svg version="1.1" id="Layer_1" xmlns="http://www.w3.org/2000/svg" xmlns:xlink="http://www.w3.org/1999/xlink" x="0px" y="0px"
	 viewBox="0 0 512 512" style="enable-background:new 0 0 512 512;" xml:space="preserve">
<path style="fill:#BF6AC8;" d="M349.074,279.274c-4.994,0-10.024-1.6-14.271-4.904c-10.145-7.891-11.975-22.512-4.084-32.658
	l108.606-139.638c7.891-10.145,22.512-11.975,32.659-4.082c10.145,7.891,11.975,22.512,4.084,32.658L367.462,270.288
	C362.875,276.185,356.011,279.274,349.074,279.274z"/>
<path style="fill:#DBDDF6;" d="M512,256c0-12.853-10.42-23.273-23.273-23.273H23.273C10.42,232.727,0,243.147,0,256
	C0,347.95,48.738,428.72,121.727,473.868c-3.348,4.031-5.364,9.208-5.364,14.859c0,12.853,10.42,23.273,23.273,23.273h232.727
	c12.853,0,23.273-10.42,23.273-23.273c0-5.651-2.015-10.826-5.364-14.859C463.262,428.719,512,347.949,512,256z"/>
<path style="fill:#ECB45C;" d="M170.667,186.181c-12.853,0-23.273-10.42-23.273-23.273c0-13.084-5.046-18.68-16.458-30.092
	c-12.699-12.699-30.092-30.09-30.087-63.001c-0.005-32.908,17.389-50.3,30.09-62.999c9.089-9.089,23.827-9.089,32.914,0
	c9.089,9.089,9.089,23.822,0.002,32.911c-11.416,11.413-16.462,17.009-16.46,30.089c-0.002,13.082,5.042,18.677,16.452,30.085
	c12.701,12.699,30.093,30.092,30.093,63.007C193.939,175.761,183.519,186.181,170.667,186.181z"/>
<path style="fill:#D5851F;" d="M279.273,186.181c-12.853,0-23.273-10.42-23.273-23.273c0-13.084-5.046-18.68-16.458-30.092
	c-12.699-12.699-30.092-30.09-30.087-63.001c-0.005-32.908,17.389-50.3,30.09-62.999c9.089-9.089,23.827-9.089,32.914,0
	c9.089,9.089,9.089,23.822,0.002,32.911C261.046,51.142,256,56.739,256.002,69.816c-0.002,13.082,5.042,18.677,16.452,30.085
	c12.699,12.699,30.092,30.092,30.092,63.007C302.545,175.761,292.125,186.181,279.273,186.181z"/>
<path style="fill:#C4C8F2;" d="M512,256c0-12.853-10.42-23.273-23.273-23.273H256V512h116.364c12.853,0,23.273-10.42,23.273-23.273
	c0-5.651-2.015-10.826-5.364-14.859C463.262,428.719,512,347.949,512,256z"/>
<g>
</g>
<g>
</g>
<g>
</g>
<g>
</g>
<g>
</g>
<g>
</g>
<g>
</g>
<g>
</g>
<g>
</g>
<g>
</g>
<g>
</g>
<g>
</g>
<g>
</g>
<g>
</g>
<g>
</g>
</svg>
